<svg width="254" height="252" viewBox="0 0 254 252" fill="none" xmlns="http://www.w3.org/2000/svg">
<path d="M216.136 214.007H178.55V155.725C178.55 141.828 178.299 123.937 159.001 123.937C139.425 123.937 136.43 139.079 136.43 154.714V214.003H98.8436V94.1524H134.926V110.531H135.432C139.043 104.418 144.261 99.3888 150.53 95.9795C156.799 92.5703 163.885 90.9085 171.033 91.1712C209.128 91.1712 216.152 115.982 216.152 148.259L216.136 214.007ZM56.4341 77.7696C52.1201 77.7704 47.9027 76.5045 44.3154 74.132C40.728 71.7596 37.932 68.3871 36.2804 64.4411C34.6288 60.495 34.1959 56.1527 35.0368 51.9632C35.8776 47.7736 37.9544 43.9251 41.0043 40.9042C44.0541 37.8832 47.9402 35.8256 52.1711 34.9916C56.402 34.1575 60.7876 34.5844 64.7735 36.2183C68.7594 37.8522 72.1664 40.6197 74.5637 44.1709C76.9611 47.7221 78.2411 51.8974 78.2419 56.1688C78.2424 59.005 77.6786 61.8134 76.583 64.4339C75.4873 67.0543 73.8813 69.4355 71.8562 71.4413C69.8312 73.4471 67.4268 75.0383 64.7807 76.1241C62.1346 77.2099 59.2984 77.7691 56.4341 77.7696ZM75.2271 214.007H37.6019V94.1524H75.2271V214.007ZM234.874 0.0154032H18.7149C13.8087 -0.039418 9.081 1.83664 5.57106 5.23132C2.06112 8.626 0.0560934 13.2616 -0.00378418 18.1194V233.038C0.054044 237.898 2.05789 242.537 5.56771 245.935C9.07753 249.333 13.8063 251.213 18.7149 251.161H234.874C239.793 251.222 244.535 249.348 248.058 245.95C251.582 242.551 253.599 237.907 253.667 233.038V18.1039C253.597 13.2364 251.578 8.59559 248.055 5.20099C244.531 1.80639 239.79 -0.0643057 234.874 -0.000109678" fill="white"/>
</svg>
