<svg width="300" height="300" viewBox="0 0 300 300" fill="none" xmlns="http://www.w3.org/2000/svg">
<g clip-path="url(#clip0_502_577)">
<path d="M150 294C229.529 294 294 229.529 294 150C294 70.471 229.529 6 150 6C70.471 6 6 70.471 6 150C6 229.529 70.471 294 150 294Z" fill="white" fill-opacity="0.5"/>
<path fill-rule="evenodd" clip-rule="evenodd" d="M150 0C67.191 0 0 67.191 0 150C0 232.809 67.191 300 150 300C232.646 300 300 232.809 300 150C300 67.191 232.646 0 150 0ZM249.078 69.1431C266.974 90.9435 277.712 118.764 278.037 148.861C273.807 148.048 231.508 139.425 188.883 144.794C187.907 142.679 187.093 140.401 186.117 138.124C183.514 131.941 180.586 125.597 177.657 119.577C224.837 100.38 246.312 72.7224 249.078 69.1431ZM150 22.1258C182.538 22.1258 212.31 34.3275 234.924 54.3384C232.646 57.5922 213.286 83.46 167.733 100.542C146.746 61.9848 123.481 30.423 119.902 25.5423C129.501 23.2646 139.588 22.1258 150 22.1258ZM95.499 34.1649C98.9154 38.7201 121.692 70.4448 143.004 108.189C83.1345 124.132 30.2604 123.807 24.5662 123.807C32.8632 84.1107 59.7072 51.0846 95.499 34.1649ZM21.8004 150.163C21.8004 148.861 21.8004 147.56 21.8004 146.258C27.3319 146.421 89.4795 147.234 153.416 128.037C157.158 135.195 160.575 142.516 163.829 149.837C162.202 150.326 160.412 150.814 158.785 151.301C92.7333 172.614 57.5922 230.857 54.6639 235.738C34.3275 213.124 21.8004 183.026 21.8004 150.163ZM150 278.2C120.391 278.2 93.0585 268.113 71.4207 251.193C73.6986 246.475 99.729 196.366 171.963 171.15C172.288 170.987 172.451 170.987 172.777 170.824C190.835 217.516 198.156 256.724 200.108 267.95C184.653 274.62 167.733 278.2 150 278.2ZM221.421 256.237C220.119 248.427 213.287 211.009 196.529 164.968C236.714 158.623 271.855 169.035 276.247 170.499C270.716 206.128 250.217 236.876 221.421 256.237Z" fill="white"/>
</g>
<defs>
<clipPath id="clip0_502_577">
<rect width="300" height="300" fill="white"/>
</clipPath>
</defs>
</svg>
