<svg width="876" height="876" viewBox="0 0 876 876" fill="none" xmlns="http://www.w3.org/2000/svg">
<path fill-rule="evenodd" clip-rule="evenodd" d="M875.982 442.019L755.987 440.94C755.996 439.962 756 438.982 756 438C756 437.018 755.996 436.038 755.987 435.059L875.982 433.981C875.994 435.319 876 436.659 876 438C876 439.341 875.994 440.681 875.982 442.019ZM875.838 425.968L755.882 429.203C755.829 427.257 755.759 425.316 755.672 423.381L875.551 417.991C875.67 420.644 875.766 423.303 875.838 425.968ZM875.119 409.993L755.357 417.551C755.235 415.606 755.094 413.668 754.937 411.735L874.542 402.007C874.758 404.662 874.951 407.324 875.119 409.993ZM873.824 394.061L754.414 405.955C754.221 404.018 754.011 402.086 753.784 400.161L872.956 386.089C873.269 388.739 873.558 391.396 873.824 394.061ZM871.945 378.153L753.05 394.398C752.788 392.48 752.509 390.569 752.213 388.664L870.792 370.252C871.2 372.878 871.584 375.512 871.945 378.153ZM869.489 362.341L751.268 382.926C750.936 381.02 750.588 379.12 750.222 377.226L868.046 354.477C868.55 357.09 869.032 359.711 869.489 362.341ZM866.458 346.641L749.071 371.548C748.669 369.653 748.25 367.765 747.815 365.884L864.723 338.82C865.325 341.418 865.903 344.025 866.458 346.641ZM862.85 331.053L746.458 360.259C745.988 358.383 745.5 356.513 744.996 354.651L860.83 323.306C861.526 325.879 862.2 328.461 862.85 331.053ZM858.668 315.599C857.925 313.04 857.159 310.491 856.37 307.951L741.768 343.536C742.339 345.374 742.893 347.22 743.431 349.072L858.668 315.599ZM853.923 300.32L739.997 338.012C739.39 336.178 738.767 334.351 738.127 332.532L851.341 292.749C852.224 295.262 853.085 297.786 853.923 300.32ZM848.621 285.231L736.158 327.089C735.484 325.276 734.793 323.471 734.086 321.674L845.759 277.752C846.735 280.234 847.689 282.727 848.621 285.231ZM842.764 270.339L731.917 316.305C731.177 314.519 730.42 312.741 729.648 310.971L839.631 262.975C840.697 265.418 841.742 267.873 842.764 270.339ZM836.363 255.67L727.28 305.678C726.475 303.922 725.654 302.175 724.818 300.436L832.966 248.435C834.119 250.835 835.252 253.246 836.363 255.67ZM829.429 241.25L722.254 295.227C721.384 293.499 720.498 291.78 719.597 290.07L825.766 234.139C827.008 236.497 828.229 238.867 829.429 241.25ZM821.973 227.097L716.847 284.963C715.913 283.266 714.964 281.578 713.999 279.9L818.049 220.12C819.378 222.433 820.686 224.759 821.973 227.097ZM814.002 213.223L711.062 274.894C710.066 273.232 709.056 271.58 708.031 269.937L809.827 206.396C811.239 208.658 812.631 210.933 814.002 213.223ZM805.528 199.647L704.908 265.036C703.853 263.412 702.783 261.798 701.699 260.194L801.11 192.982C802.602 195.189 804.075 197.411 805.528 199.647ZM796.566 186.392L698.397 255.405C697.282 253.819 696.153 252.243 695.01 250.678L791.906 179.889C793.478 182.042 795.032 184.209 796.566 186.392ZM787.128 173.473L691.536 246.013C690.363 244.468 689.177 242.934 687.976 241.41L782.233 167.142C783.883 169.237 785.515 171.347 787.128 173.473ZM777.225 160.904L684.334 236.873C683.106 235.371 681.864 233.88 680.608 232.401L772.104 154.757C773.829 156.79 775.536 158.839 777.225 160.904ZM766.871 148.704L676.802 227.997C675.519 226.54 674.224 225.096 672.916 223.663L761.531 142.747C763.329 144.716 765.109 146.702 766.871 148.704ZM756.082 136.888L668.951 219.399C667.616 217.99 666.269 216.593 664.909 215.208L750.528 131.129C752.397 133.031 754.248 134.951 756.082 136.888ZM744.871 125.471L660.792 211.091C659.407 209.731 658.01 208.384 656.601 207.049L739.112 119.918C741.049 121.751 742.968 123.603 744.871 125.471ZM733.252 114.469L652.337 203.084C650.904 201.776 649.459 200.481 648.003 199.198L727.296 109.128C729.298 110.891 731.283 112.671 733.252 114.469ZM721.243 103.896L643.599 195.392C642.12 194.136 640.629 192.894 639.127 191.666L715.095 98.7746C717.16 100.463 719.21 102.171 721.243 103.896ZM708.857 93.767L634.59 188.024C633.066 186.823 631.532 185.637 629.986 184.464L702.527 88.8717C704.652 90.4846 706.763 92.1165 708.857 93.767ZM696.111 84.094L625.321 180.99C623.757 179.847 622.181 178.718 620.595 177.603L689.608 79.4338C691.79 80.9678 693.958 82.5214 696.111 84.094ZM683.018 74.89L615.806 174.301C614.202 173.217 612.588 172.147 610.964 171.091L676.353 70.4718C678.589 71.9248 680.811 73.3976 683.018 74.89ZM669.604 66.173L606.063 167.969C604.42 166.944 602.768 165.934 601.106 164.938L662.777 61.9979C665.066 63.3693 667.342 64.7611 669.604 66.173ZM655.88 57.9507L596.1 162.001C594.422 161.036 592.734 160.087 591.037 159.153L648.902 54.0265C651.241 55.3139 653.567 56.6221 655.88 57.9507ZM641.861 50.2343L585.93 156.402C584.22 155.502 582.501 154.616 580.773 153.746L634.75 46.5707C637.133 47.7709 639.503 48.9921 641.861 50.2343ZM627.564 43.0343L575.564 151.182C573.825 150.346 572.077 149.525 570.321 148.72L620.33 39.6372C622.754 40.7482 625.165 41.8806 627.564 43.0343ZM613.025 36.3688L565.028 146.352C563.258 145.58 561.48 144.823 559.694 144.083L605.661 33.2356C608.127 34.2582 610.581 35.3027 613.025 36.3688ZM598.248 30.2411L554.326 141.914C552.529 141.207 550.724 140.516 548.911 139.842L590.769 27.3786C593.273 28.3106 595.766 29.2648 598.248 30.2411ZM583.25 24.6588L543.468 137.873C541.649 137.233 539.822 136.61 537.988 136.003L575.68 22.0766C578.214 22.9149 580.737 23.7758 583.25 24.6588ZM568.049 19.6298L532.464 134.232C530.626 133.661 528.78 133.107 526.928 132.569L560.4 17.3317C562.959 18.0751 565.509 18.8412 568.049 19.6298ZM552.694 15.1699L521.349 131.004C519.486 130.5 517.617 130.012 515.74 129.542L544.947 13.15C547.538 13.8003 550.121 14.4737 552.694 15.1699ZM537.18 11.2766L510.116 128.185C508.235 127.749 506.346 127.331 504.452 126.929L529.359 9.54191C531.975 10.0969 534.581 10.6752 537.18 11.2766ZM521.523 7.95413L498.773 125.778C496.88 125.412 494.98 125.064 493.073 124.732L513.659 6.51053C516.288 6.96836 518.91 7.44963 521.523 7.95413ZM505.747 5.20761L487.336 123.787C485.431 123.491 483.519 123.212 481.602 122.95L497.847 4.05466C500.488 4.41551 503.122 4.7999 505.747 5.20761ZM489.911 3.04402L475.839 122.216C473.913 121.989 471.982 121.779 470.045 121.586L481.939 2.17644C484.603 2.44183 487.261 2.73109 489.911 3.04402ZM473.993 1.45764C471.337 1.24166 468.675 1.04936 466.007 0.880963L458.449 120.643C460.393 120.765 462.332 120.905 464.265 121.063L473.993 1.45764ZM458.009 0.448887L452.619 120.328C450.684 120.241 448.743 120.171 446.796 120.118L450.032 0.162056C452.697 0.23393 455.356 0.329609 458.009 0.448887ZM442.019 0.0180552L440.94 120.013C439.962 120.004 438.982 120 438 120C437.018 120 436.038 120.004 435.059 120.013L433.981 0.0180586C435.319 0.00602807 436.659 0 438 0C439.341 0 440.681 0.00602693 442.019 0.0180552ZM425.968 0.162066L429.203 120.118C427.257 120.171 425.316 120.241 423.381 120.328L417.991 0.448903C420.644 0.329623 423.303 0.233942 425.968 0.162066ZM409.993 0.880987L417.551 120.643C415.606 120.765 413.668 120.905 411.735 121.063L402.007 1.45767C404.662 1.24169 407.324 1.04939 409.993 0.880987ZM394.061 2.17647L405.955 121.586C404.018 121.779 402.086 121.989 400.161 122.216L386.089 3.04406C388.739 2.73113 391.396 2.44186 394.061 2.17647ZM378.153 4.05471L394.398 122.95C392.48 123.212 390.569 123.491 388.664 123.787L370.252 5.20766C372.878 4.79994 375.512 4.41555 378.153 4.05471ZM362.341 6.51059L382.926 124.732C381.02 125.064 379.12 125.412 377.226 125.778L354.477 7.95419C357.09 7.44969 359.711 6.96842 362.341 6.51059ZM346.641 9.54198L371.548 126.929C369.653 127.331 367.765 127.749 365.884 128.185L338.82 11.2767C341.418 10.6753 344.025 10.097 346.641 9.54198ZM331.053 13.1501L360.259 129.542C358.383 130.012 356.513 130.5 354.651 131.004L323.306 15.17C325.879 14.4738 328.461 13.8004 331.053 13.1501ZM315.599 17.3318C313.04 18.0752 310.491 18.8413 307.951 19.6299L343.536 134.232C345.374 133.661 347.22 133.107 349.072 132.569L315.599 17.3318ZM300.32 22.0767L338.012 136.003C336.178 136.61 334.351 137.233 332.532 137.873L292.749 24.6589C295.262 23.7758 297.786 22.915 300.32 22.0767ZM285.231 27.3787L327.089 139.842C325.276 140.516 323.471 141.207 321.674 141.914L277.752 30.2412C280.234 29.2649 282.727 28.3107 285.231 27.3787ZM270.339 33.2357L316.305 144.083C314.519 144.823 312.741 145.58 310.971 146.352L262.975 36.3689C265.418 35.3028 267.873 34.2583 270.339 33.2357ZM255.67 39.6373L305.678 148.72C303.922 149.525 302.175 150.346 300.436 151.182L248.435 43.0345C250.835 41.8808 253.246 40.7483 255.67 39.6373ZM241.25 46.5708L295.227 153.746C293.499 154.616 291.78 155.502 290.07 156.403L234.139 50.2344C236.497 48.9923 238.867 47.771 241.25 46.5708ZM227.097 54.0267L284.963 159.153C283.266 160.087 281.578 161.036 279.9 162.001L220.12 57.9508C222.433 56.6222 224.759 55.3141 227.097 54.0267ZM213.223 61.998L274.894 164.938C273.232 165.934 271.58 166.944 269.937 167.969L206.396 66.1731C208.658 64.7613 210.933 63.3695 213.223 61.998ZM199.647 70.472L265.036 171.092C263.412 172.147 261.798 173.217 260.194 174.301L192.982 74.8901C195.189 73.3977 197.411 71.9249 199.647 70.472ZM186.392 79.4339L255.405 177.603C253.819 178.718 252.243 179.847 250.678 180.99L179.889 84.0942C182.042 82.5215 184.209 80.968 186.392 79.4339ZM173.473 88.8719L246.013 184.464C244.468 185.637 242.934 186.823 241.41 188.024L167.142 93.7672C169.237 92.1167 171.347 90.4848 173.473 88.8719ZM160.904 98.7748L236.873 191.666C235.371 192.894 233.88 194.136 232.401 195.392L154.757 103.896C156.79 102.171 158.839 100.464 160.904 98.7748ZM148.704 109.129L227.997 199.198C226.54 200.481 225.096 201.776 223.663 203.084L142.747 114.469C144.716 112.671 146.702 110.891 148.704 109.129ZM136.888 119.918L219.399 207.049C217.99 208.384 216.593 209.731 215.208 211.091L131.129 125.472C133.031 123.603 134.951 121.752 136.888 119.918ZM125.471 131.129L211.091 215.208C209.731 216.593 208.384 217.99 207.049 219.399L119.918 136.888C121.751 134.951 123.603 133.032 125.471 131.129ZM114.469 142.748L203.084 223.663C201.776 225.096 200.481 226.541 199.198 227.997L109.128 148.704C110.891 146.702 112.671 144.717 114.469 142.748ZM103.896 154.757L195.392 232.401C194.136 233.88 192.894 235.371 191.666 236.873L98.7746 160.905C100.463 158.84 102.171 156.79 103.896 154.757ZM93.767 167.143L188.024 241.41C186.823 242.934 185.637 244.468 184.464 246.014L88.8717 173.473C90.4846 171.348 92.1165 169.237 93.767 167.143ZM84.094 179.889L180.99 250.679C179.847 252.243 178.718 253.819 177.603 255.405L79.4337 186.392C80.9678 184.21 82.5214 182.042 84.094 179.889ZM74.89 192.982L174.301 260.194C173.217 261.798 172.147 263.412 171.091 265.036L70.4718 199.647C71.9248 197.411 73.3976 195.189 74.89 192.982ZM66.1729 206.396L167.969 269.937C166.944 271.58 165.934 273.232 164.938 274.894L61.9979 213.223C63.3693 210.934 64.7611 208.658 66.1729 206.396ZM57.9507 220.12L162.001 279.9C161.036 281.578 160.087 283.266 159.153 284.963L54.0265 227.098C55.3139 224.759 56.6221 222.433 57.9507 220.12ZM50.2343 234.139L156.402 290.07C155.502 291.78 154.616 293.499 153.746 295.227L46.5707 241.25C47.7708 238.867 48.9921 236.497 50.2343 234.139ZM43.0343 248.436L151.182 300.436C150.346 302.175 149.525 303.923 148.72 305.679L39.6372 255.67C40.7482 253.246 41.8806 250.835 43.0343 248.436ZM36.3688 262.975L146.352 310.972C145.58 312.742 144.823 314.52 144.083 316.306L33.2356 270.339C34.2582 267.873 35.3027 265.418 36.3688 262.975ZM30.2411 277.752L141.914 321.674C141.207 323.471 140.516 325.276 139.842 327.089L27.3786 285.231C28.3106 282.727 29.2648 280.234 30.2411 277.752ZM24.6588 292.75L137.873 332.532C137.233 334.351 136.61 336.178 136.003 338.012L22.0766 300.32C22.9149 297.786 23.7758 295.263 24.6588 292.75ZM19.6298 307.951L134.232 343.536C133.661 345.374 133.107 347.22 132.569 349.072L17.3317 315.6C18.0751 313.04 18.8412 310.491 19.6298 307.951ZM15.1699 323.306L131.004 354.651C130.5 356.514 130.012 358.383 129.542 360.259L13.15 331.053C13.8003 328.462 14.4737 325.879 15.1699 323.306ZM11.2766 338.82L128.185 365.884C127.749 367.765 127.331 369.654 126.929 371.548L9.54191 346.641C10.0969 344.025 10.6752 341.418 11.2766 338.82ZM7.95413 354.478L125.778 377.227C125.412 379.12 125.064 381.02 124.732 382.927L6.51053 362.341C6.96836 359.712 7.44963 357.09 7.95413 354.478ZM5.20761 370.253L123.787 388.664C123.491 390.569 123.212 392.481 122.95 394.398L4.05466 378.153C4.41551 375.512 4.7999 372.878 5.20761 370.253ZM3.04402 386.089L122.216 400.161C121.989 402.087 121.779 404.018 121.586 405.955L2.17644 394.061C2.44183 391.397 2.73109 388.739 3.04402 386.089ZM1.45764 402.007C1.24166 404.663 1.04936 407.325 0.880963 409.993L120.643 417.551C120.765 415.607 120.905 413.668 121.063 411.735L1.45764 402.007ZM0.448887 417.991L120.328 423.381C120.241 425.316 120.171 427.257 120.118 429.204L0.162056 425.968C0.23393 423.303 0.329609 420.644 0.448887 417.991ZM0.0180552 433.981C0.00602693 435.319 0 436.659 0 438C0 439.341 0.00602807 440.681 0.0180586 442.019L120.013 440.941C120.004 439.962 120 438.982 120 438C120 437.018 120.004 436.038 120.013 435.06L0.0180552 433.981ZM0.162066 450.032L120.118 446.797C120.171 448.743 120.241 450.684 120.328 452.619L0.448903 458.009C0.329623 455.356 0.233942 452.697 0.162066 450.032ZM0.880987 466.007L120.643 458.449C120.765 460.394 120.905 462.332 121.063 464.265L1.45767 473.993C1.24169 471.338 1.04939 468.676 0.880987 466.007ZM2.17647 481.939L121.586 470.045C121.779 471.982 121.989 473.914 122.216 475.839L3.04406 489.911C2.73113 487.261 2.44186 484.604 2.17647 481.939ZM4.05471 497.847L122.95 481.602C123.212 483.52 123.491 485.431 123.787 487.336L5.20766 505.748C4.79994 503.122 4.41556 500.488 4.05471 497.847ZM6.51058 513.659L124.732 493.074C125.064 494.98 125.412 496.88 125.778 498.774L7.95419 521.523C7.44969 518.91 6.96842 516.289 6.51058 513.659ZM9.54198 529.359L126.929 504.452C127.331 506.347 127.749 508.235 128.185 510.116L11.2767 537.18C10.6753 534.582 10.097 531.975 9.54198 529.359ZM13.1501 544.947L129.542 515.741C130.012 517.617 130.5 519.487 131.004 521.349L15.17 552.694C14.4738 550.121 13.8004 547.539 13.1501 544.947ZM17.3318 560.401C18.0752 562.96 18.8413 565.509 19.6299 568.049L134.232 532.464C133.661 530.626 133.107 528.78 132.569 526.928L17.3318 560.401ZM22.0767 575.68L136.003 537.988C136.61 539.822 137.233 541.649 137.873 543.468L24.6589 583.251C23.7758 580.737 22.915 578.214 22.0767 575.68ZM27.3787 590.769L139.842 548.911C140.516 550.724 141.207 552.529 141.914 554.326L30.2412 598.248C29.2649 595.766 28.3107 593.273 27.3787 590.769ZM33.2357 605.661L144.083 559.695C144.823 561.481 145.58 563.259 146.352 565.029L36.3689 613.025C35.3028 610.582 34.2583 608.127 33.2357 605.661ZM39.6373 620.33L148.72 570.322C149.525 572.078 150.346 573.825 151.182 575.564L43.0345 627.565C41.8808 625.165 40.7483 622.754 39.6373 620.33ZM46.5708 634.75L153.746 580.773C154.616 582.501 155.502 584.22 156.403 585.93L50.2344 641.861C48.9923 639.503 47.771 637.133 46.5708 634.75ZM54.0267 648.903L159.153 591.037C160.087 592.734 161.036 594.422 162.001 596.1L57.9509 655.88C56.6222 653.567 55.3141 651.241 54.0267 648.903ZM61.998 662.777L164.938 601.106C165.934 602.768 166.944 604.42 167.969 606.063L66.1731 669.604C64.7613 667.342 63.3695 665.067 61.998 662.777ZM70.472 676.353L171.092 610.964C172.147 612.588 173.217 614.202 174.301 615.806L74.8901 683.018C73.3977 680.811 71.9249 678.589 70.472 676.353ZM79.4339 689.608L177.603 620.595C178.718 622.181 179.847 623.757 180.99 625.322L84.0942 696.111C82.5215 693.958 80.968 691.791 79.4339 689.608ZM88.8719 702.527L184.464 629.987C185.637 631.532 186.823 633.066 188.024 634.59L93.7672 708.858C92.1167 706.763 90.4848 704.653 88.8719 702.527ZM98.7748 715.096L191.666 639.127C192.894 640.629 194.136 642.12 195.392 643.599L103.896 721.243C102.171 719.21 100.464 717.161 98.7748 715.096ZM109.129 727.296L199.198 648.003C200.481 649.46 201.776 650.904 203.084 652.337L114.469 733.253C112.671 731.284 110.891 729.298 109.129 727.296ZM119.918 739.112L207.049 656.601C208.384 658.01 209.731 659.407 211.091 660.792L125.472 744.871C123.603 742.969 121.752 741.049 119.918 739.112ZM131.129 750.529L215.208 664.909C216.593 666.269 217.99 667.616 219.399 668.951L136.888 756.082C134.951 754.249 133.032 752.397 131.129 750.529ZM142.748 761.531L223.663 672.916C225.096 674.224 226.541 675.519 227.997 676.802L148.704 766.872C146.702 765.109 144.717 763.329 142.748 761.531ZM154.757 772.104L232.401 680.608C233.88 681.864 235.371 683.106 236.873 684.334L160.905 777.225C158.84 775.537 156.79 773.829 154.757 772.104ZM167.143 782.233L241.41 687.976C242.934 689.177 244.468 690.363 246.014 691.536L173.473 787.128C171.348 785.515 169.237 783.884 167.143 782.233ZM179.889 791.906L250.679 695.01C252.243 696.153 253.819 697.282 255.405 698.397L186.392 796.566C184.21 795.032 182.042 793.479 179.889 791.906ZM192.982 801.11C195.189 802.602 197.411 804.075 199.647 805.528L265.036 704.909C263.412 703.853 261.798 702.783 260.194 701.699L192.982 801.11ZM206.396 809.827L269.937 708.031C271.58 709.056 273.232 710.066 274.894 711.062L213.223 814.002C210.934 812.631 208.658 811.239 206.396 809.827ZM220.12 818.049L279.9 713.999C281.578 714.964 283.266 715.913 284.963 716.847L227.098 821.973C224.759 820.686 222.433 819.378 220.12 818.049ZM234.139 825.766L290.07 719.598C291.78 720.498 293.499 721.384 295.227 722.254L241.25 829.429C238.867 828.229 236.497 827.008 234.139 825.766ZM248.436 832.966L300.436 724.818C302.175 725.654 303.923 726.475 305.679 727.28L255.67 836.363C253.246 835.252 250.835 834.119 248.436 832.966ZM262.975 839.631L310.972 729.648C312.742 730.42 314.52 731.177 316.306 731.917L270.339 842.764C267.873 841.742 265.418 840.697 262.975 839.631ZM277.752 845.759L321.674 734.086C323.471 734.793 325.276 735.484 327.089 736.158L285.231 848.621C282.727 847.689 280.234 846.735 277.752 845.759ZM292.75 851.341L332.532 738.127C334.351 738.767 336.178 739.39 338.012 739.997L300.32 853.923C297.786 853.085 295.263 852.224 292.75 851.341ZM307.951 856.37L343.536 741.768C345.374 742.339 347.22 742.893 349.072 743.431L315.6 858.668C313.04 857.925 310.491 857.159 307.951 856.37ZM323.306 860.83L354.651 744.996C356.514 745.5 358.383 745.988 360.259 746.458L331.053 862.85C328.462 862.2 325.879 861.526 323.306 860.83ZM338.82 864.723L365.884 747.815C367.765 748.251 369.654 748.669 371.548 749.071L346.641 866.458C344.025 865.903 341.418 865.325 338.82 864.723ZM354.477 868.046L377.227 750.222C379.12 750.588 381.02 750.936 382.927 751.268L362.341 869.489C359.712 869.032 357.09 868.55 354.477 868.046ZM370.253 870.792L388.664 752.213C390.569 752.509 392.481 752.788 394.398 753.05L378.153 871.945C375.512 871.584 372.878 871.2 370.253 870.792ZM386.089 872.956L400.161 753.784C402.087 754.011 404.018 754.221 405.955 754.414L394.061 873.824C391.397 873.558 388.739 873.269 386.089 872.956ZM402.007 874.542L411.735 754.937C413.668 755.095 415.607 755.235 417.551 755.357L409.993 875.119C407.325 874.951 404.663 874.758 402.007 874.542ZM417.991 875.551L423.381 755.672C425.316 755.759 427.257 755.829 429.204 755.882L425.968 875.838C423.303 875.766 420.644 875.67 417.991 875.551ZM433.981 875.982L435.06 755.987C436.038 755.996 437.018 756 438 756C438.982 756 439.962 755.996 440.941 755.987L442.019 875.982C440.681 875.994 439.341 876 438 876C436.659 876 435.319 875.994 433.981 875.982ZM450.032 875.838C452.697 875.766 455.356 875.67 458.009 875.551L452.619 755.672C450.684 755.759 448.743 755.829 446.797 755.882L450.032 875.838ZM466.007 875.119L458.449 755.357C460.394 755.235 462.332 755.094 464.265 754.937L473.993 874.542C471.338 874.758 468.676 874.951 466.007 875.119ZM481.939 873.824L470.045 754.414C471.982 754.221 473.914 754.011 475.839 753.784L489.911 872.956C487.261 873.269 484.604 873.558 481.939 873.824ZM497.847 871.945L481.602 753.05C483.52 752.788 485.431 752.509 487.336 752.213L505.748 870.792C503.122 871.2 500.488 871.584 497.847 871.945ZM513.659 869.489L493.074 751.268C494.98 750.936 496.88 750.588 498.774 750.222L521.523 868.046C518.91 868.55 516.289 869.032 513.659 869.489ZM529.359 866.458L504.452 749.071C506.347 748.669 508.235 748.25 510.116 747.815L537.18 864.723C534.582 865.325 531.975 865.903 529.359 866.458ZM544.947 862.85L515.741 746.458C517.617 745.988 519.487 745.5 521.349 744.996L552.694 860.83C550.121 861.526 547.539 862.2 544.947 862.85ZM560.401 858.668C562.96 857.925 565.509 857.159 568.049 856.37L532.464 741.768C530.626 742.339 528.78 742.893 526.928 743.431L560.401 858.668ZM575.68 853.923L537.988 739.997C539.822 739.39 541.649 738.767 543.468 738.127L583.251 851.341C580.738 852.224 578.214 853.085 575.68 853.923ZM590.769 848.621C593.273 847.689 595.766 846.735 598.248 845.759L554.326 734.086C552.529 734.793 550.724 735.484 548.911 736.158L590.769 848.621ZM605.661 842.764L559.695 731.917C561.481 731.177 563.259 730.42 565.029 729.648L613.025 839.631C610.582 840.697 608.127 841.742 605.661 842.764ZM620.33 836.363L570.322 727.28C572.078 726.475 573.825 725.654 575.564 724.818L627.565 832.966C625.165 834.119 622.754 835.252 620.33 836.363ZM634.75 829.429L580.773 722.254C582.501 721.384 584.22 720.498 585.93 719.597L641.861 825.766C639.503 827.008 637.133 828.229 634.75 829.429ZM648.903 821.973L591.037 716.847C592.734 715.913 594.422 714.964 596.1 713.999L655.88 818.049C653.567 819.378 651.242 820.686 648.903 821.973ZM662.777 814.002L601.106 711.062C602.768 710.066 604.42 709.056 606.063 708.031L669.604 809.827C667.342 811.239 665.067 812.631 662.777 814.002ZM676.353 805.528L610.964 704.908C612.588 703.853 614.202 702.783 615.806 701.699L683.018 801.11C680.811 802.602 678.589 804.075 676.353 805.528ZM689.608 796.566L620.595 698.397C622.181 697.282 623.757 696.153 625.322 695.01L696.111 791.906C693.958 793.478 691.791 795.032 689.608 796.566ZM702.527 787.128L629.987 691.536C631.532 690.363 633.066 689.177 634.59 687.976L708.858 782.233C706.763 783.883 704.653 785.515 702.527 787.128ZM715.095 777.225L639.127 684.334C640.629 683.106 642.12 681.864 643.599 680.608L721.243 772.104C719.21 773.829 717.16 775.536 715.095 777.225ZM727.296 766.871L648.003 676.802C649.46 675.519 650.904 674.224 652.337 672.916L733.253 761.531C731.284 763.329 729.298 765.109 727.296 766.871ZM739.112 756.082L656.601 668.951C658.01 667.616 659.407 666.269 660.792 664.909L744.871 750.528C742.969 752.397 741.049 754.248 739.112 756.082ZM750.529 744.871L664.909 660.792C666.269 659.407 667.616 658.01 668.951 656.601L756.082 739.112C754.249 741.049 752.397 742.968 750.529 744.871ZM761.531 733.252L672.916 652.337C674.224 650.904 675.519 649.459 676.802 648.003L766.872 727.296C765.109 729.298 763.329 731.283 761.531 733.252ZM772.104 721.243L680.608 643.599C681.864 642.12 683.106 640.629 684.334 639.127L777.225 715.095C775.537 717.16 773.829 719.21 772.104 721.243ZM782.233 708.857L687.976 634.59C689.177 633.066 690.363 631.532 691.536 629.986L787.128 702.527C785.515 704.652 783.884 706.763 782.233 708.857ZM791.906 696.111L695.01 625.321C696.153 623.757 697.282 622.181 698.397 620.595L796.566 689.608C795.032 691.79 793.479 693.958 791.906 696.111ZM801.11 683.018C802.602 680.811 804.075 678.589 805.528 676.353L704.909 610.964C703.853 612.588 702.783 614.202 701.699 615.806L801.11 683.018ZM809.827 669.604L708.031 606.063C709.056 604.42 710.066 602.768 711.062 601.106L814.002 662.777C812.631 665.066 811.239 667.342 809.827 669.604ZM818.049 655.88L713.999 596.1C714.964 594.422 715.913 592.734 716.847 591.037L821.973 648.902C820.686 651.241 819.378 653.567 818.049 655.88ZM825.766 641.861L719.598 585.93C720.498 584.22 721.384 582.501 722.254 580.773L829.429 634.75C828.229 637.133 827.008 639.503 825.766 641.861ZM832.966 627.564L724.818 575.564C725.654 573.825 726.475 572.077 727.28 570.321L836.363 620.33C835.252 622.754 834.119 625.165 832.966 627.564ZM839.631 613.025L729.648 565.028C730.42 563.258 731.177 561.48 731.917 559.694L842.764 605.661C841.742 608.127 840.697 610.581 839.631 613.025ZM845.759 598.248L734.086 554.326C734.793 552.529 735.484 550.724 736.158 548.911L848.621 590.769C847.689 593.273 846.735 595.766 845.759 598.248ZM851.341 583.25L738.127 543.468C738.767 541.649 739.39 539.822 739.997 537.988L853.923 575.68C853.085 578.214 852.224 580.737 851.341 583.25ZM856.37 568.049L741.768 532.464C742.339 530.626 742.893 528.78 743.431 526.928L858.668 560.4C857.925 562.96 857.159 565.509 856.37 568.049ZM860.83 552.694L744.996 521.349C745.5 519.486 745.988 517.617 746.458 515.74L862.85 544.947C862.2 547.538 861.526 550.121 860.83 552.694ZM864.723 537.18L747.815 510.116C748.251 508.235 748.669 506.346 749.071 504.452L866.458 529.359C865.903 531.975 865.325 534.582 864.723 537.18ZM868.046 521.523L750.222 498.773C750.588 496.88 750.936 494.98 751.268 493.073L869.489 513.659C869.032 516.288 868.55 518.91 868.046 521.523ZM870.792 505.747L752.213 487.336C752.509 485.431 752.788 483.519 753.05 481.602L871.945 497.847C871.584 500.488 871.2 503.122 870.792 505.747ZM872.956 489.911L753.784 475.839C754.011 473.913 754.221 471.982 754.414 470.045L873.824 481.939C873.558 484.603 873.269 487.261 872.956 489.911ZM874.542 473.993L754.937 464.265C755.095 462.332 755.235 460.393 755.357 458.449L875.119 466.007C874.951 468.675 874.758 471.337 874.542 473.993ZM875.551 458.009L755.672 452.619C755.759 450.684 755.829 448.743 755.882 446.796L875.838 450.032C875.766 452.697 875.67 455.356 875.551 458.009Z" fill="#677B83"/>
</svg>
